<svg id="canvas" height="100%" xmlns="http://www.w3.org/2000/svg" version="1.1" xmlns:xlink="http://www.w3.org/1999/xlink" xmlns:svgjs="http://svgjs.dev/svgjs" viewBox="0 0 900 512"><rect width="900" height="512" fill="#00000000"></rect><path d="M152.19555637632175 345.7874935948362C110.21033438527513 364.0297146450422 60.175590777260425 365.80790076510186 13.074468470041609 366.82004903506174C-34.02665383717721 367.8321973050216 -88.45892422519609 373.48165767012006 -130.41117746699126 351.86038321459523C-172.3634307087864 330.2391087590704 -204.69180713492165 273.22558129219965 -238.6390509807293 237.09240230191256C-272.58629482653697 200.95922331162546 -315.5699809268124 179.1889864016115 -334.0946405418372 135.0613092728728C-352.619300156862 90.93363214413404 -349.49406162347947 21.250118968478432 -349.7870086708781 -27.67366047051985C-350.0799557182767 -76.59743990951813 -351.9358743348105 -119.60951455588952 -335.85232282622883 -158.48136736111675C-319.7687713176472 -197.353220166344 -283.4685514798919 -229.99309995688506 -253.28569961938828 -260.9047773018833C-223.10284775888468 -291.81645464688154 -196.19096145799836 -330.1928562594506 -154.75521166320715 -343.9514314311063C-113.31946186841594 -357.710006602762 -52.46764803469841 -343.73139852298647 -4.6712008506409575 -343.45622833181756C43.1252463334165 -343.18105814064864 98.89953200582511 -356.5760140971577 132.02347144113742 -342.3004102840927C165.14741087644973 -328.0248064710277 169.35130302193 -287.6159247487928 194.07243576123278 -257.8026054534274C218.79356850053557 -227.98928615806201 251.59046359027343 -207.40117052572097 280.35026787695415 -163.42049451190042C309.11007216363487 -119.43981849807986 353.24231869195205 -46.12307833843943 366.6312614813171 6.081450629495976C380.02020427068214 58.28597959743138 377.62483479064394 107.92580061165705 360.68392461314465 149.806679295712C343.74301443564536 191.6875579797669 299.73386178912506 224.70325368397152 264.98580041632124 257.36672273382555C230.23773904351742 290.0301917836796 194.18077836736836 327.54527254463017 152.19555637632175 345.7874935948362C110.21033438527513 364.0297146450422 60.175590777260425 365.80790076510186 13.074468470041609 366.82004903506174 " fill="#000868ff"></path><path d="M1056.8160897110529 984.6675276323856C1006.7787976897399 987.6779267117006 916.009032250666 919.1975661232665 862.5772198557949 903.4544890868193C809.1454074609237 887.7114120503721 773.1548087865965 909.0636468194646 736.2252153418262 890.2090654137028C699.2956218970558 871.354484007941 670.8852634677785 822.00029909366 640.9996591871727 790.3270006522487C611.1140549065668 758.6537022108373 571.2022728245763 733.4688036397608 556.9115896581911 700.1692747652343C542.6209064918061 666.8697458907077 555.0833891879197 630.2036946261975 555.2555601888619 590.5298274050888C555.427731189804 550.8559601839801 541.6995525344504 497.99486574068294 557.9446156638442 462.126071438582C574.1896787932379 426.25727713648104 620.0633371743099 405.2864789434133 652.7259389652246 375.317061592483C685.3885407561394 345.34764424155264 713.5770653550103 300.3305571564491 753.9202264093326 282.30956733300013C794.263387463655 264.28857750955115 848.1945667900361 267.14616993654374 894.7849052911587 267.1911226517892C941.3752437922813 267.2360753670347 995.1995474034659 264.53470264912266 1033.4622574160676 282.57928362447285C1071.7249674286693 300.62386459982304 1093.6531753268964 343.4069099860292 1124.3611653667688 375.45860850389045C1155.0691554066411 407.5103070217517 1209.3523803105431 439.52285455589487 1217.7101976553022 474.8894747316406C1226.0680150000608 510.2560949073863 1182.0583727183966 547.646040201495 1174.5080694353219 587.6583295583646C1166.9577661522471 627.6706189152342 1174.3595608654623 665.3409166974307 1172.408377956854 714.9632108728581C1170.457195048246 764.5855050482855 1182.0663533579723 840.4413751510084 1162.8009719836718 885.3920946109297C1143.5355906093719 930.342814070851 1106.8533817323655 981.6571285530706 1056.8160897110529 984.6675276323856C1006.7787976897399 987.6779267117006 916.009032250666 919.1975661232665 862.5772198557949 903.4544890868193 " fill="#000328ff" transform="matrix(-1,1.2246467991473532e-16,-1.2246467991473532e-16,-1,1768.7611083984375,1251.7637939453125)"></path><path d="M329.4253560078952 1132.7569494453728C283.31904776763463 1141.0208119544113 208.54600829368871 1092.406722959748 157.68137269415172 1083.5248537405423C106.81673709461472 1074.6429845213365 64.87701672247329 1100.6693001322008 24.237542410673143 1079.4657341301374C-16.401931901127 1058.262168128074 -54.41804158062928 992.9227766313884 -86.1554731766492 956.3034577281624C-117.89290477266911 919.6841388249363 -151.81873277695541 894.9205706492432 -166.18704716544636 859.7498207107815C-180.5553615539373 824.5790707723197 -172.4972222010918 785.8311204194663 -172.3653595075948 745.2789580973913C-172.2334968140978 704.7267957753164 -181.75113925383 653.085222038031 -165.39587100446437 616.436846778332C-149.04060275509875 579.788471518633 -107.31042895201912 555.4231263616872 -74.23375001140107 525.3887065391971C-41.15707107078302 495.35428671670707 -0.8098265060268091 451.90070324867025 33.06420263924397 436.2303278433916C66.93823178451476 420.55995243811293 92.60739889718855 431.911595680274 129.01042486022357 431.36645410752527C165.4134508232586 430.82131253477655 202.3090137035578 415.20705130005115 251.48235841745424 432.9594784068993C300.65570313135066 450.7119055137474 378.4637532000585 503.6492021821459 424.0504931436021 537.8810167486139C469.6372330871458 572.1128313150818 516.4201895605725 603.4804902966309 525.0027980787161 638.3503658057072C533.5854065968597 673.2202413147834 486.34446753042766 707.3854362811779 475.5461442524636 747.1002698030712C464.7478209744995 786.8151033249645 467.0840120970564 828.8324654565267 460.21285841093163 876.6393669370668C453.34170472480685 924.4462684176071 456.11713920288776 991.2554149349282 434.319222135715 1033.9416786863126C412.52130506854223 1076.627942437697 375.5316642481557 1124.4930869363347 329.4253560078952 1132.7569494453728C283.31904776763463 1141.0208119544113 208.54600829368871 1092.406722959748 157.68137269415172 1083.5248537405423 " fill="#000da7ff"></path><path d="M820.7574683993453 93.22401692536391C788.0697448339344 116.26766244637815 756.7728412265104 138.12845798563285 717.0078015543111 145.33849043809562C677.2427618821118 152.5485228905584 620.855428653428 146.34291001281838 582.1672303661494 136.48421164014053C543.4790320788707 126.62551326746268 516.3873965528301 113.00160212691958 484.87861183063916 86.18630020202829C453.36982710844825 59.370998277137005 411.31930009763323 26.78951156468827 393.11452203300377 -24.40759990920742C374.9097439683743 -75.60471138310317 376.3286850625221 -167.79572058681424 375.6499434428623 -220.99636864134607C374.97120182320253 -274.1970166958779 371.88789456462007 -309.1971303950638 389.0420723150452 -343.61148823639826C406.1962500654703 -378.0258460777327 445.98987531610027 -399.0361822997887 478.5750099454129 -427.4825156893527C511.1601445747255 -455.9288490789166 549.1842315264321 -498.7706187822637 584.5528800909208 -514.2894885737817C619.9215286554096 -529.8083583652998 652.2801866101883 -520.2140480367714 690.7869013323452 -520.5957344384611C729.2936160545023 -520.9774208401509 777.6788663997352 -532.5417784400954 815.5931684238628 -516.5796069839205C853.5074704479905 -500.61743552774544 885.9803994185004 -455.1623907254809 918.2727134771112 -424.8227057014112C950.565027535722 -394.48302067734153 991.7197287528116 -372.4740197428695 1009.347052775528 -334.5414968395023C1026.9743767982445 -296.6089739361352 1021.1264080431625 -242.0650639909358 1024.0366576134095 -197.2275682812085C1026.9469071836565 -152.3900725714812 1045.2923026414487 -99.56722018000818 1026.8085501970097 -65.51652258113836C1008.3247977525708 -31.465824982268543 947.4759899130538 -19.380139272406723 913.1341429467764 7.076617312010285C878.7922959804989 33.53337389642729 853.4451919647561 70.18037140434967 820.7574683993453 93.22401692536391C788.0697448339344 116.26766244637815 756.7728412265104 138.12845798563285 717.0078015543111 145.33849043809562 " fill="#000da7ff"></path></svg>